<svg xmlns="http://www.w3.org/2000/svg" xmlns:xlink="http://www.w3.org/1999/xlink" width="80.52mm" height="40.26mm" viewBox="0 0 228.24 114.12"><defs><clipPath id="a"><rect width="228.24" height="114.12" fill="none"/></clipPath></defs><title>logo</title><g clip-path="url(#a)"><rect width="228.24" height="114.12" fill="#fff" opacity="0"/><g clip-path="url(#a)"><path d="M155.94,109.23c.58,2.94-1,3.62-3.58,3.32a49,49,0,0,0-4.92,0c2.22-3.82,4.22-7.17,6.11-10.58a5.29,5.29,0,0,0,.61-2.44c0-6.13.27-12.28-.05-18.4-.25-4.78-1.38-9.51-5.42-12.72-.86-.68-3-1.12-3.54-.61-3.78,3.59-6.89.74-10.2-.69a42.67,42.67,0,0,0-5.66-2.2c-.68-.19-2.31.52-2.33.87-.09,2.31.17,4.64.26,7,.06,1.46,0,2.92,0,4.38,0,.8-.4,2.1-.06,2.33,2.77,1.85,1.44,4.45,1.63,6.77-4,.67-7.86-2.27-7.88-5.86,0-5.64,0-11.27,0-16.91a6.46,6.46,0,0,1,6.13-6.1c3.49,0,7,0,10.67,0-.46-2-.88-3.64-1.24-5.33-.73-3.51,2.19-5.5,3.6-8a35.84,35.84,0,0,0,4.53-13.28c.07-.57.23-1.13.36-1.72a12.18,12.18,0,0,0-9.35.8c-.93.46-3.35,0-3.58-.61a11.3,11.3,0,0,1-.52-5.56c.18-1.1,1.59-2,2.39-3,1.52-1.95,3-3.92,4.49-5.91a1.26,1.26,0,0,0,.28-1c-1.74-4.55,2.88-6.84,3.31-10.87,2.7,2.8,9.38,3.27,10.46.84,1.43,1.62,2.69,3.47,5.29,2.66a16.39,16.39,0,0,1,4.1-.49,7.77,7.77,0,0,1,2,.58l-3.36,1.34,10.83,4.12v1l-3.23.79,3.59,1.84-1.46.39,2.82,1.1-3.54,1.15,8.28,3-.24.58-4.73,1.12.1.65L177,24l-5.28,2.36,4.61,2.74-1.32,1.22,1.42,1-.3,2.25-2,.89,4.49,3.86-3.47,1.58,1.29,1.83-2.94,1.1c1.37,3.17,3.7,1.43,5.26,1.21,5.62-.77,10.79-.21,15.48,3.28,1.73,1.29,3.49,2.09,5.9.73a29.14,29.14,0,0,1,8.6-2.76l-2.3,2.5L215,49l0,.48-4.74,1.24,8.23,6.42-3.52-.25-.82.87,6.22,5.56-5.23-2.08L225,78.43l-3.25-3c-.86,1.69-.86,1.69,3.18,7.73l-5.08-5.65-.94.54c1.84,4-.45,9.14,4.4,12.41l-.7.5-4.25-1.79-.46.41,5,8.12c-4-.32-5.06-4.45-8.27-6l1.94,5.25c-5.44-3-7.11-7.25-6.77-12.54.26-4.07-2.06-7.1-4.62-9.74-3-3.15-4.16-6.24-2.35-10.5a8.86,8.86,0,0,0-3-10.82,28.28,28.28,0,0,1,.08,13.46c-.81,3.56-.22,7.39,3.18,9.87s4.18,5.77,4.32,9.92c.11,3.28,2,6.56,3.44,9.68.33.7,2.1.74,3.34,1.13-.6,1.54-2.5,3.24.63,3.82.19,0,.34.76.35,1.16,0,2.79,0,5.57,0,8.25-2.89,1.12-3.9-.94-4.53-2.57a13.07,13.07,0,0,0-6.82-7.12c-.49-3.83-.91-7.49-1.46-11.13a4.42,4.42,0,0,0-1.06-2.32c-4.94-5.06-10-10-15-15.12-3.12,2.51-5.7,5-4.92,9.25,1,5.67-.91,10.07-5,14.09-2.21,2.16-3.27,5.48-4.87,8.27-.38.66-.7,1.51-1.29,1.85a4.5,4.5,0,0,0-2.39,5.12h-9c.73-1.74.91-3.68,1.93-4.33,3.92-2.54,5.63-6.79,8.41-10.19,1.62-2,2.33-4.69,3.62-7s.81-4.08.11-6.36c-1-3.23-1.21-6.71-1.84-10.51-2.09,0-4.57-.32-6.89.16-.93.19-2,2.08-2.16,3.29-.57,4.78-.12,9.79-1.37,14.35a42.33,42.33,0,0,0-1.39,11.2,8.9,8.9,0,0,0,.07,1.57C160,106.87,159.37,108,155.94,109.23Z"/><path d="M57,42.81l-3-1.08,1.14-1.83-3.45-1.56,4.4-3.83-2.34-1.17.8-1L53.4,31.7l1.92-1.31L54,29.06l4.49-2.69L53.47,24l3.93-.42.12-.7-4.71-1.07-.26-.57,8.24-3-3.51-1.17L60,16l-1.24-.51,3.47-1.78L57.8,12.68,69.66,7.75,67,6.66l-.08-.56C68.44,6,70,5.56,71.41,5.93c2.44.65,4.5.95,5.91-1.67.09-.17.47-.19.72-.29C79,6.11,85.85,5.64,88.28,2.69c.56,4,4.43,6.15,3.65,10.64-.28,1.64,1.57,3.78,2.73,5.51a17.14,17.14,0,0,0,3.18,3.11c2.06,1.78,1.72,4.14,1.33,6.32-.32,1.79-2.46,2.44-4.33,1.68-4.35-1.78-4.58-1.8-9.38-1.08a35.1,35.1,0,0,0,7.09,18.64c1.91,2.56,1.54,4.93.74,7.55-.19.63-.34,1.27-.6,2.29,3.65,0,6.95,0,10.25,0a6.45,6.45,0,0,1,6.51,6.52c.09,3.66.44,7.31.46,11a53.82,53.82,0,0,1-.57,7.78c-.24,1.73-5.17,4-7.75,3.67.15-2.32-1.14-4.86,1.53-6.76.38-.27.07-1.52.05-2.31,0-1.46-.18-2.93-.12-4.38.09-2.31.44-4.62.35-6.92,0-.32-2.12-1.06-2.92-.75-3.48,1.35-6.76,3.22-10.27,4.44-1.06.37-2.73-.58-3.95-1.25-2.43-1.32-3.78-1.08-5.39,1.18-.55.78-1.44,1.34-1.91,2.15a15.88,15.88,0,0,0-1.65,3.82c-2,7.78-.92,15.72-1.08,23.6,0,1.21.82,2.48,1.4,3.66.87,1.76,1.92,3.44,2.79,5.21.56,1.14.94,2.37,1.52,3.88-2.31,1.57-5.05.22-7.61.78v-3.25c-3.65-1.9-3.55-2.23-3.36-6.58.17-3.92,1-8-1.32-11.72-.21-.33-.1-.85-.13-1.29-.37-4.8-.6-9.62-1.24-14.39a4.23,4.23,0,0,0-2.76-2.72c-2-.44-4.16-.13-6.23-.13-.51,3.07-.95,6-1.49,8.91-.22,1.15-1.07,2.32-.92,3.39.36,2.59.63,5.4,1.85,7.62a135.76,135.76,0,0,0,7.92,11.88,4.4,4.4,0,0,0,1.88,1.37c2.26.95,2.48,2.82,2.49,5H62.71c.22-2.39-.9-4-2.88-5.28a5.27,5.27,0,0,1-1.8-3c-1-4.34-3.81-7.48-7-10.3A5.23,5.23,0,0,1,49,87.41c.16-1.83-.19-3.71.08-5.51.67-4.36-1.73-7-5-9.47l-6.25,6.18c-2.59,2.56-5.32,5-7.69,7.73A10.84,10.84,0,0,0,28,91.14c-.61,3-.81,6.08-1.22,9.11a1.12,1.12,0,0,1-.54.78c-3.85,1.57-5.58,5-7.47,8.31-.52.92-2,1.32-3.61,2.34,0-3.78,0-6.57,0-9.36a1.83,1.83,0,0,1,.37-1.17c1.69-1.72,1.7-1.7.7-3.49.2-.22.44-.69.65-.68,3,.11,3.09-2.31,4.21-4.18,2.09-3.52,1.94-7.2,2.12-11,.05-1.14,1.21-2.44,2.2-3.28,3.43-2.91,5.7-6.32,5.26-11-.18-1.87-1.08-3.7-1.11-5.56,0-2.87.37-5.76.58-8.45-3.25,2.43-4.32,6.83-2.53,11.23,1.54,3.79,1,6.16-1.89,9.15-3.34,3.45-5.66,7.24-5.35,12.42.21,3.6-1,7-4.44,9a7.06,7.06,0,0,0-1.33,1.41l-.68-.3,1.79-4.82c-3.25,1.52-4.19,5.84-8.3,6.05l5.18-8.21-.32-.42-4.72,2c1.14-2.33,2.45-4.25,3-6.37s.32-4.43.46-7.25l-5.4,5.93c.44-3,3.54-4.61,3.6-8.39L5.45,78.27l9.39-16.38-.41-.39-4.06,1.76-.44-.56,6.29-4.92-.83-1-3.89.49L20,50.8l-4.73-1.3,0-.54,8.4-1.11-2.6-3.27c3.54,1.3,6.49,2,9,3.42s4.4.48,6.3-.93C41,43.72,46,43.29,51.45,44,53.14,44.18,55.29,45.74,57,42.81Z"/></g></g></svg>