<svg xmlns="http://www.w3.org/2000/svg" width="305" height="153" viewBox="0 0 228.24 114.12"><defs><clipPath id="A"><path d="M0 0h228.24v114.12H0z" fill="none"/></clipPath></defs><g clip-path="url(#A)"><path d="M0 0h228.24v114.12H0z" fill="#fff" opacity="0"/><g clip-path="url(#A)"><path d="M155.94 109.23c.58 2.94-1 3.62-3.58 3.32a49 49 0 0 0-4.92 0l6.1-10.58a5.29 5.29 0 0 0 .61-2.44c0-6.13.27-12.28-.05-18.4-.25-4.78-1.38-9.5-5.42-12.72-.86-.68-3-1.12-3.54-.6-3.78 3.6-6.9.74-10.2-.7a42.67 42.67 0 0 0-5.66-2.2c-.68-.2-2.3.52-2.33.87-.1 2.3.17 4.64.26 7 .06 1.46 0 2.92 0 4.38 0 .8-.4 2.1-.06 2.33 2.77 1.85 1.44 4.45 1.63 6.77-4 .67-7.86-2.27-7.88-5.86V63.5a6.46 6.46 0 0 1 6.13-6.1h10.67l-1.24-5.33c-.73-3.5 2.2-5.5 3.6-8a35.84 35.84 0 0 0 4.53-13.28c.07-.57.23-1.13.36-1.72a12.18 12.18 0 0 0-9.35.8c-.93.46-3.35 0-3.58-.6a11.3 11.3 0 0 1-.52-5.56c.18-1.1 1.6-2 2.4-3l4.5-5.9a1.26 1.26 0 0 0 .28-1c-1.74-4.55 2.88-6.84 3.3-10.87 2.7 2.8 9.38 3.27 10.46.84 1.43 1.62 2.7 3.47 5.3 2.66a16.39 16.39 0 0 1 4.1-.49 7.77 7.77 0 0 1 2 .58l-3.36 1.34L171.3 12v1l-3.23.8 3.6 1.84-1.46.4 2.82 1.1-3.54 1.15 8.28 3-.24.58-4.73 1.12.1.65 4.1.42-5.28 2.36 4.6 2.74-1.32 1.22 1.42 1-.3 2.25-2 .9 4.5 3.86-3.47 1.58 1.3 1.83-2.94 1.1c1.37 3.17 3.7 1.43 5.26 1.2 5.62-.77 10.8-.2 15.48 3.28 1.73 1.3 3.5 2.1 5.9.73a29.14 29.14 0 0 1 8.6-2.76l-2.3 2.5L215 49v.48l-4.74 1.24 8.23 6.42-3.52-.25-.82.87 6.22 5.56-5.23-2.08 9.86 17.2-3.25-3c-.86 1.7-.86 1.7 3.18 7.73l-5.08-5.65-.94.54c1.84 4-.45 9.14 4.4 12.4l-.7.5-4.25-1.8-.46.4 5 8.12c-4-.32-5.06-4.45-8.27-6l1.94 5.25c-5.44-3-7.1-7.25-6.77-12.54.26-4.07-2.06-7.1-4.62-9.74-3-3.15-4.16-6.24-2.35-10.5a8.86 8.86 0 0 0-3-10.82 28.28 28.28 0 0 1 .08 13.46c-.8 3.56-.22 7.4 3.18 9.87s4.18 5.77 4.32 9.92c.1 3.28 2 6.56 3.44 9.68.33.7 2.1.74 3.34 1.13-.6 1.54-2.5 3.24.63 3.82.2 0 .34.76.35 1.16v8.25c-2.9 1.12-3.9-.94-4.53-2.57a13.07 13.07 0 0 0-6.82-7.12l-1.46-11.13a4.42 4.42 0 0 0-1.06-2.32l-15-15.12c-3.12 2.5-5.7 5-4.92 9.25 1 5.67-.9 10.07-5 14.1-2.2 2.16-3.27 5.48-4.87 8.27-.38.66-.7 1.5-1.3 1.85a4.5 4.5 0 0 0-2.39 5.12h-9c.73-1.74.9-3.68 1.93-4.33 3.92-2.54 5.63-6.8 8.4-10.2 1.62-2 2.33-4.7 3.62-7s.8-4.08.1-6.36c-1-3.23-1.2-6.7-1.84-10.5-2.1 0-4.57-.32-6.9.16-.93.2-2 2.08-2.16 3.3-.57 4.78-.12 9.8-1.37 14.35a42.33 42.33 0 0 0-1.39 11.2 8.9 8.9 0 0 0 .07 1.57c.68 3.73.05 4.86-3.38 6.1zM57 42.8l-3-1.08 1.14-1.83-3.45-1.56 4.4-3.83-2.34-1.17.8-1-1.15-.64 1.92-1.3L54 29.06l4.5-2.7L53.47 24l3.93-.42.12-.7-4.7-1.07-.26-.57 8.24-3-3.5-1.17L60 16l-1.24-.5 3.47-1.78-4.43-1.03 11.86-4.93L67 6.66l-.08-.56c1.52-.1 3.08-.54 4.5-.17 2.44.65 4.5.95 5.9-1.67.1-.17.47-.2.72-.3.96 2.14 7.8 1.67 10.24-1.28.56 4 4.43 6.15 3.65 10.64-.28 1.64 1.57 3.78 2.73 5.5a17.14 17.14 0 0 0 3.18 3.11c2.06 1.78 1.72 4.14 1.33 6.32-.32 1.8-2.46 2.44-4.33 1.68-4.35-1.78-4.58-1.8-9.38-1.08a35.1 35.1 0 0 0 7.09 18.64c1.9 2.56 1.54 4.93.74 7.55-.2.63-.34 1.27-.6 2.3h10.25a6.45 6.45 0 0 1 6.51 6.52c.1 3.66.44 7.3.46 11a53.82 53.82 0 0 1-.57 7.78c-.24 1.73-5.17 4-7.75 3.67.15-2.32-1.14-4.86 1.53-6.76.38-.27.07-1.52.05-2.3 0-1.46-.18-2.93-.12-4.38.1-2.3.44-4.62.35-6.92 0-.32-2.12-1.06-2.92-.75-3.48 1.35-6.76 3.22-10.27 4.44-1.06.37-2.73-.58-3.95-1.25-2.43-1.32-3.78-1.08-5.4 1.18-.55.78-1.44 1.34-1.9 2.15a15.88 15.88 0 0 0-1.65 3.82c-2 7.78-.92 15.72-1.08 23.6 0 1.2.82 2.48 1.4 3.66.87 1.76 1.92 3.44 2.8 5.2.56 1.14.94 2.37 1.52 3.88-2.3 1.57-5.05.22-7.6.78v-3.25c-3.65-1.9-3.55-2.23-3.36-6.58.17-3.92 1-8-1.32-11.72-.2-.33-.1-.85-.13-1.3-.37-4.8-.6-9.62-1.24-14.4a4.23 4.23 0 0 0-2.76-2.72c-2-.44-4.16-.13-6.23-.13l-1.5 8.9c-.22 1.15-1.07 2.32-.92 3.4.36 2.6.63 5.4 1.85 7.62a135.76 135.76 0 0 0 7.92 11.88 4.4 4.4 0 0 0 1.88 1.37c2.26.95 2.48 2.82 2.5 5h-8.3c.22-2.4-.9-4-2.88-5.28a5.27 5.27 0 0 1-1.8-3c-1-4.34-3.8-7.48-7-10.3A5.23 5.23 0 0 1 49 87.41c.16-1.83-.2-3.7.08-5.5.67-4.36-1.73-7-5-9.47l-6.25 6.18c-2.6 2.56-5.32 5-7.7 7.73a10.84 10.84 0 0 0-2.14 4.8c-.6 3-.8 6.08-1.22 9.1a1.12 1.12 0 0 1-.54.78c-3.85 1.57-5.58 5-7.47 8.3-.52.92-2 1.32-3.6 2.34v-9.36a1.83 1.83 0 0 1 .37-1.17c1.7-1.72 1.7-1.7.7-3.5.2-.22.44-.7.65-.68 3 .1 3.1-2.3 4.2-4.18 2.1-3.52 1.94-7.2 2.12-11 .05-1.14 1.2-2.44 2.2-3.28 3.43-2.9 5.7-6.32 5.26-11-.18-1.87-1.08-3.7-1.1-5.56 0-2.87.37-5.76.58-8.45-3.25 2.43-4.32 6.83-2.53 11.23 1.54 3.8 1 6.16-1.9 9.15-3.34 3.45-5.66 7.24-5.35 12.42.2 3.6-1 7-4.44 9a7.06 7.06 0 0 0-1.33 1.41l-.68-.3 1.8-4.82c-3.25 1.52-4.2 5.84-8.3 6.05l5.18-8.2-.32-.42-4.72 2c1.14-2.33 2.45-4.25 3-6.37s.32-4.43.46-7.25l-5.4 5.93c.44-3 3.54-4.6 3.6-8.4l-3.76 3.33 9.4-16.38-.4-.4-4.06 1.76-.44-.56 6.3-4.92-.83-1-3.9.5L20 50.8l-4.73-1.3v-.54l8.4-1.1-2.6-3.27c3.54 1.3 6.5 2 9 3.42s4.4.48 6.3-.93C41 43.72 46 43.3 51.45 44c1.7.18 3.84 1.74 5.55-1.2z"/></g></g></svg>