<?xml version="1.0" encoding="UTF-8"?>
<svg width="71.79mm" height="49.99mm" viewBox="0 0 203.5 141.7" xmlns="http://www.w3.org/2000/svg">
<title>logo</title>
<path transform="translate(-.27 -.88)" d="M135.21,66.3c-.25,27-11.21,46.47-27.36,63.56C102,136,102,136,96.23,129.93,79.46,112.16,68,92,69,66.66c1-26,13.2-47,30.83-65.18.74-.77,3.61-.82,4.34-.07C122.49,20.24,134.49,42.06,135.21,66.3Z" fill="#eb5d1b"/>
<path transform="translate(-.27 -.88)" d="M75,142.55C37.57,142.31,11.16,122.46.75,86.77-.36,83,.36,81.25,4,80.17c20.16-5.91,39.51-4.71,57.63,6.59a10.29,10.29,0,0,1,4.4,5.5c4.09,16.86,12.84,30.92,24.87,43.16,1.07,1.09,1.6,2.7,2.38,4.08-1.47.6-2.89,1.53-4.41,1.73C84.31,141.82,79.66,142.13,75,142.55Z" fill="#eb5d1b"/>
<path transform="translate(-.27 -.88)" d="M128.53,142.58c-4.8-.48-9.6-.88-14.38-1.49-1.19-.15-2.91-.75-3.27-1.61s.58-2.48,1.41-3.3c12.65-12.62,21.8-27.2,25.81-44.83.38-1.65,2.16-3.33,3.72-4.32,18.42-11.57,38.05-12.88,58.54-6.7,3.15,1,4,2.47,3,5.9C193.5,122.08,166.37,142.48,128.53,142.58Z" fill="#eb5d1b"/>
<path transform="translate(-.27 -.88)" d="M62.63,78.76c-7.72-2.45-14.84-5.14-22.17-6.94-9.32-2.29-9.46-2-10.31-11.63a73.89,73.89,0,0,1,3.94-30.9c.47-1.35,2.74-3.2,3.88-3,9.24,1.52,18.16,4.18,25.79,9.86,1.17.87,2.35,3.18,2,4.39-3.42,11.87-3.2,24-2.86,36.12A14.13,14.13,0,0,1,62.63,78.76Z" fill="#eb5d1b"/>
<path transform="translate(-.27 -.88)" d="m139.93 79.49c0-3.44 0.2-6.07 0-8.66-0.88-9.75-1.73-19.51-3-29.21-0.35-2.68-0.37-4.71 2.25-5.75 8.45-3.34 16.93-6.63 25.51-9.61 0.89-0.31 3.35 1.36 3.74 2.55 4 12 5.69 24.28 3.27 36.91-0.7 3.28-1.96 4.78-5.7 5.51-7.13 1.39-14 4-21 6.12-1.53 0.46-3 1.23-5.07 2.14z" fill="#eb5d1b"/>
</svg>
